<svg width="25" height="24" viewBox="0 0 25 24" fill="none" xmlns="http://www.w3.org/2000/svg">
    <g clip-path="url(#clip0_113_38)">
        <path fill-rule="evenodd" clip-rule="evenodd" d="M19.3159 3.21905C19.431 3.20256 19.5485 3.22435 19.6494 3.2809C19.7393 3.31978 19.8157 3.38316 19.8696 3.46343C19.9234 3.5437 19.9524 3.63744 19.9529 3.73337L19.9863 8.31671H19.9713H19.9563H19.9479H19.9396H19.9312H19.7261H19.0624H19.0474H19.0324H19.0174H19.0024L18.9757 4.65134L15.8071 6.60447V13.4062C15.545 13.5856 15.2715 13.7487 14.9883 13.8945L14.7865 13.5983V6.6712L10.6541 6.16176L10.5024 10.4782L8.86306 9.38604L7.2221 10.291L7.55563 5.77602L4.77066 5.42934V14.6806L11.3579 15.3952L11.1594 16.3717L4.23534 15.6247C4.10438 15.6184 3.98092 15.5632 3.89057 15.4704C3.80021 15.3777 3.7499 15.2546 3.75005 15.1266V4.8727C3.74859 4.77446 3.77673 4.67796 3.83099 4.5952C3.88524 4.51244 3.96322 4.44707 4.05523 4.4072L9.5518 2.04067C9.63691 2.00316 9.73091 1.98909 9.82363 1.99998L19.3159 3.21905ZM11.8715 20.5986L13.2373 13.8261L14.6215 15.8623C17.6032 14.6953 19.2775 12.7682 19.526 9.80271C21.9758 13.9824 20.4882 17.7291 17.3847 19.9232L18.7972 22L11.8715 20.5986ZM14.5247 3.60805L11.523 5.26983L15.1618 5.72231L17.9 4.03936L14.5247 3.60805ZM8.3661 4.87595L11.2778 3.19138L9.83363 3.00746L6.12645 4.60414L8.3661 4.88246V4.87595Z" fill="#667A91"/>
    </g>
    <defs>
        <clipPath id="clip0_113_38">
            <rect width="17" height="20" fill="white" transform="translate(3.75 2)"/>
        </clipPath>
    </defs>
</svg>
