<svg width="18" height="18" viewBox="0 0 18 18" fill="none" xmlns="http://www.w3.org/2000/svg">
    <path d="M9 16.4968C4.85786 16.4968 1.5 13.1389 1.5 8.99676C1.5 4.85463 4.85786 1.49677 9 1.49677C13.1421 1.49677 16.5 4.85463 16.5 8.99676C16.5 13.1389 13.1421 16.4968 9 16.4968ZM9 14.9968C12.3137 14.9968 15 12.3105 15 8.99676C15 5.68305 12.3137 2.99677 9 2.99677C5.68629 2.99677 3 5.68305 3 8.99676C3 12.3105 5.68629 14.9968 9 14.9968ZM8.25195 11.9968L5.06999 8.81481L6.13066 7.75409L8.25195 9.87546L12.4946 5.6328L13.5553 6.69346L8.25195 11.9968Z" fill="#22272F"/>
</svg>
